HIERARCHY
ROOT Hips
{
 OFFSET 0.000000 0.000000 0.000000
 CHANNELS 6 Xposition Yposition Zposition Yrotation Xrotation Zrotation
 JOINT Chest
 {
  OFFSET 0.000000 9.585900 0.002600
  CHANNELS 3 Yrotation Xrotation Zrotation
  JOINT Chest2
  {
   OFFSET 0.000000 9.601200 -0.005300
   CHANNELS 3 Yrotation Xrotation Zrotation
   JOINT Chest3
   {
    OFFSET 0.000000 9.561800 0.000000
    CHANNELS 3 Yrotation Xrotation Zrotation
    JOINT Chest4
    {
     OFFSET 0.000000 9.552100 0.000000
     CHANNELS 3 Yrotation Xrotation Zrotation
     JOINT Neck
     {
      OFFSET 0.000000 14.453000 0.000000
      CHANNELS 3 Yrotation Xrotation Zrotation
      JOINT Head
      {
       OFFSET 0.000000 8.936500 -0.011300
       CHANNELS 3 Yrotation Xrotation Zrotation
       End Site
       {
        OFFSET 0.000000 17.073600 -0.006000
       }
      }
     }
     JOINT RightCollar
     {
      OFFSET -2.921100 9.558500 0.000000
      CHANNELS 3 Yrotation Xrotation Zrotation
      JOINT RightShoulder
      {
       OFFSET -13.519700 0.000000 0.000000
       CHANNELS 3 Yrotation Xrotation Zrotation
       JOINT RightElbow
       {
        OFFSET 0.000000 -29.696600 0.000000
        CHANNELS 3 Yrotation Xrotation Zrotation
        JOINT RightWrist
        {
         OFFSET 0.000000 -24.004700 0.000000
         CHANNELS 3 Yrotation Xrotation Zrotation
         End Site
         {
          OFFSET 0.000000 -17.728500 0.000000
         }
        }
       }
      }
     }
     JOINT LeftCollar
     {
      OFFSET 2.921100 9.558500 0.000000
      CHANNELS 3 Yrotation Xrotation Zrotation
      JOINT LeftShoulder
      {
       OFFSET 13.519700 0.000000 0.000000
       CHANNELS 3 Yrotation Xrotation Zrotation
       JOINT LeftElbow
       {
        OFFSET 0.000000 -29.696600 0.000000
        CHANNELS 3 Yrotation Xrotation Zrotation
        JOINT LeftWrist
        {
         OFFSET 0.000000 -24.004700 0.000000
         CHANNELS 3 Yrotation Xrotation Zrotation
         End Site
         {
          OFFSET 0.000000 -17.728500 0.000000
         }
        }
       }
      }
     }
    }
   }
  }
 }
 JOINT RightHip
 {
  OFFSET -7.771700 -0.012900 -0.001300
  CHANNELS 3 Yrotation Xrotation Zrotation
  JOINT RightKnee
  {
   OFFSET 0.000000 -40.869800 0.001200
   CHANNELS 3 Yrotation Xrotation Zrotation
   JOINT RightAnkle
   {
    OFFSET 0.000000 -39.717900 0.002100
    CHANNELS 3 Yrotation Xrotation Zrotation
    JOINT RightToe
    {
     OFFSET 0.000000 -4.965400 11.033500
     CHANNELS 3 Yrotation Xrotation Zrotation
     End Site
     {
      OFFSET 0.000000 -1.423100 5.872300
     }
    }
   }
  }
 }
 JOINT LeftHip
 {
  OFFSET 7.771700 -0.012900 -0.001300
  CHANNELS 3 Yrotation Xrotation Zrotation
  JOINT LeftKnee
  {
   OFFSET 0.000000 -40.869800 0.001200
   CHANNELS 3 Yrotation Xrotation Zrotation
   JOINT LeftAnkle
   {
    OFFSET 0.000000 -39.717900 0.002100
    CHANNELS 3 Yrotation Xrotation Zrotation
    JOINT LeftToe
    {
     OFFSET 0.000000 -4.965400 11.033500
     CHANNELS 3 Yrotation Xrotation Zrotation
     End Site
     {
      OFFSET 0.000000 -1.423100 5.872300
     }
    }
   }
  }
 }
}
MOTION
Frames: 6
Frame Time: 0.008333
-36.485810 46.666273 18.294220 176.170913 -31.216038 -2.995374 0.090255 18.521509 1.107129 -0.003776 2.130393 0.121835 -0.023784 3.539144 0.223098 0.035024 16.185729 0.997228 -0.035848 17.240928 -2.224142 0.687593 -3.749231 -4.095813 0.528085 1.172413 -2.070462 5.575999 -6.475374 -15.646201 -51.013308 -56.148969 100.676235 -1.452053 8.034448 -20.118941 0.667921 0.248942 1.709267 -4.013312 -2.030637 13.204654 78.293406 -72.826551 -116.712513 -3.977879 11.611544 4.155518 -4.350141 -56.407440 -7.760677 -166.115748 81.240756 -157.397738 -6.434574 -13.614314 -6.122578 -0.111152 -0.890865 0.143825 -0.243170 -57.756272 11.318287 -109.831836 80.652390 -114.215336 5.510362 -6.836175 6.306114 0.451624 0.284068 0.158290
-36.487082 46.678870 18.270657 176.205486 -31.248153 -3.008782 0.033104 18.577673 1.125481 -0.018291 2.137496 0.131201 -0.027636 3.534370 0.216792 -0.015849 16.188397 1.000633 -0.036985 17.263816 -2.192956 0.674149 -3.707648 -4.037431 0.562675 1.176375 -2.113459 5.514982 -6.477322 -15.638939 -51.007895 -56.121477 100.664867 -1.440370 8.047692 -20.069681 0.645775 0.261808 1.697993 -4.065634 -2.024854 13.197028 78.199479 -72.834732 -116.617354 -3.948940 11.577692 4.261501 -4.280145 -56.370467 -7.878109 -166.787265 81.260158 -158.095437 -6.473278 -13.530960 -6.143524 -0.115667 -0.799000 0.177764 -0.279960 -57.716615 11.300997 -110.074584 80.657502 -114.455225 5.537705 -6.860195 6.322840 0.421830 0.262900 0.139641
-36.482073 46.690214 18.255475 176.242192 -31.238305 -3.031850 -0.011923 18.580770 1.141694 -0.038913 2.150125 0.150141 -0.037816 3.535516 0.219164 -0.062310 16.190398 1.006352 -0.043326 17.282238 -2.160813 0.650981 -3.674492 -3.975598 0.595013 1.180034 -2.160403 5.451823 -6.471051 -15.626194 -50.998608 -56.100093 100.667545 -1.447226 8.043303 -20.051951 0.630535 0.270967 1.681773 -4.132210 -2.032770 13.198526 78.155098 -72.837535 -116.543310 -3.932901 11.582721 4.322978 -4.254408 -56.374514 -7.956913 -167.451748 81.289708 -158.781168 -6.535452 -13.470335 -6.176879 -0.081418 -0.696278 0.207582 -0.315231 -57.723286 11.289120 -110.172484 80.670589 -114.544888 5.625838 -6.834696 6.353147 0.339035 0.213687 0.104581
-36.472171 46.702823 18.243664 176.276548 -31.220599 -3.054218 -0.056031 18.576953 1.159543 -0.058510 2.162512 0.169264 -0.047050 3.536349 0.222227 -0.104121 16.191600 1.015866 -0.055574 17.296540 -2.128368 0.616976 -3.649008 -3.911220 0.534740 1.259097 -2.152781 5.483118 -6.527457 -15.675885 -50.997004 -56.076642 100.675682 -1.446169 8.035647 -20.043258 0.619622 0.276810 1.664171 -4.208918 -2.054445 13.205455 78.101288 -72.840200 -116.464580 -3.927434 11.610615 4.362993 -4.165831 -56.380689 -8.067896 -168.047522 81.318744 -159.373660 -6.585442 -13.401853 -6.185597 -0.051969 -0.608786 0.220956 -0.334414 -57.739485 11.269752 -110.268367 80.678293 -114.623149 5.676752 -6.826832 6.368595 0.295675 0.186598 0.086503
-36.457000 46.718606 18.231399 176.284294 -31.222434 -3.069758 -0.090636 18.603257 1.195296 -0.060969 2.163542 0.174188 -0.055271 3.536868 0.225950 -0.140617 16.192017 1.028951 -0.074033 17.308393 -2.096150 0.571720 -3.628380 -3.845220 0.513957 1.308637 -2.169878 5.469111 -6.543037 -15.693197 -51.001610 -56.053720 100.688263 -1.451759 8.015183 -20.051118 0.608458 0.282723 1.647868 -4.290206 -2.092021 13.217061 78.046544 -72.841269 -116.391214 -3.915787 11.627315 4.409574 -4.113928 -56.381553 -8.108991 -168.486366 81.337541 -159.848550 -6.627668 -13.300458 -6.180243 -0.025707 -0.555831 0.229198 -0.325414 -57.737801 11.256161 -110.403270 80.690468 -114.733751 5.756614 -6.804076 6.391217 0.213219 0.136274 0.056273
-36.441872 46.734382 18.222239 176.289160 -31.213544 -3.068020 -0.124136 18.619362 1.219059 -0.067673 2.164873 0.176653 -0.062299 3.536974 0.230047 -0.145994 16.178792 1.011842 -0.108681 17.331066 -2.023183 0.519143 -3.610640 -3.779210 0.488085 1.356463 -2.160286 5.433114 -6.534968 -15.691292 -51.015834 -56.034907 100.710210 -1.459653 7.986930 -20.067461 0.573572 0.301399 1.671881 -4.301141 -2.131930 13.193403 77.995992 -72.885650 -116.396427 -3.906607 11.653618 4.446289 -4.025048 -56.400309 -8.175890 -168.803943 81.349749 -160.199764 -6.663879 -13.172399 -6.169183 -0.009879 -0.526892 0.235347 -0.259873 -57.747789 11.192170 -110.557311 80.704783 -114.852943 5.820045 -6.792095 6.415167 0.134401 0.095705 0.029443
